<?xml version="1.0" encoding="UTF-8"?> <!-- Creator: CorelDRAW 2017 --> <svg xmlns="http://www.w3.org/2000/svg" xmlns:xlink="http://www.w3.org/1999/xlink" xml:space="preserve" width="130px" height="35px" version="1.1" style="shape-rendering:geometricPrecision; text-rendering:geometricPrecision; image-rendering:optimizeQuality; fill-rule:evenodd; clip-rule:evenodd" viewBox="0 0 131.19 35.43"> <defs> <style type="text/css"> <![CDATA[ .str0 {stroke:#E6E7E8;stroke-width:0.07;stroke-miterlimit:22.9256} .fil4 {fill:#FEFEFE} .fil7 {fill:#4B4B4D} .fil0 {fill:#373435;fill-rule:nonzero} .fil3 {fill:#ED2E62;fill-rule:nonzero} .fil2 {fill:#A8CF45;fill-rule:nonzero} .fil1 {fill:#51C8ED;fill-rule:nonzero} .fil6 {fill:url(#id0)} .fil5 {fill:url(#id1)} ]]> </style> <radialGradient id="id0" gradientUnits="userSpaceOnUse" gradientTransform="matrix(1.83256 -0 -0 1.83257 -16 -4)" cx="18.95" cy="5.4" r="14.05" fx="18.95" fy="5.4"> <stop offset="0" style="stop-opacity:1; stop-color:#FEFEFE"></stop> <stop offset="0.85098" style="stop-opacity:1; stop-color:#DDDEDF"></stop> <stop offset="1" style="stop-opacity:1; stop-color:#BDBFC1"></stop> </radialGradient> <radialGradient id="id1" gradientUnits="userSpaceOnUse" gradientTransform="matrix(1.74166 -0 -0 1.74166 -14 -15)" cx="19.29" cy="19.6" r="14.05" fx="19.29" fy="19.6"> <stop offset="0" style="stop-opacity:1; stop-color:#FEFEFE"></stop> <stop offset="0.0588235" style="stop-opacity:1; stop-color:#98A6C1"></stop> <stop offset="1" style="stop-opacity:1; stop-color:#324F85"></stop> </radialGradient> </defs> <g id="Camada_x0020_1"> <metadata id="CorelCorpID_0Corel-Layer"></metadata> <g id="_1747971000544"> <path class="fil0" d="M49.25 17.07c2.48,0 4.6,-0.89 6.12,-2.39 1.67,-1.65 2.61,-3.93 2.61,-6.5 0,-3.97 -2.41,-6.69 -6.74,-6.69 -2.33,0 -4.51,0.89 -6.03,2.34 -1.72,1.65 -2.73,4 -2.73,6.59 0,3.93 2.57,6.65 6.75,6.65l0.02 0zm0.36 -2.23c-2.91,0 -4.22,-1.95 -4.22,-4.62 0,-1.88 0.71,-3.71 1.96,-4.96 0.94,-0.94 2.17,-1.54 3.57,-1.54 3.28,0 4.16,2.39 4.16,4.62 0,1.99 -0.74,3.77 -1.92,4.96 -0.96,0.98 -2.22,1.54 -3.53,1.54l-0.02 0zm11.2 6.43l0.9 -4.74 0.04 0c0.43,0.27 1.25,0.54 2.43,0.54 3.89,0 6.75,-3.22 6.75,-7.12 0,-2.28 -1.3,-4.29 -3.84,-4.29 -1.52,0 -2.97,0.74 -4,2.1l-0.04 0 0.26 -1.9 -2.47 0c-0.14,1.14 -0.41,2.97 -0.63,4.24l-2.12 11.17 2.72 0zm1.7 -9.07c0.54,-2.83 2.12,-4.35 3.59,-4.35 1.43,0 1.97,1.23 1.97,2.25 0,2.73 -1.9,4.87 -3.91,4.87 -0.87,0 -1.56,-0.22 -2.01,-0.62l0.36 -2.15zm18.98 -6.27l-0.96 4.93c-0.47,2.46 -2.01,3.98 -3.33,3.98 -1.18,0 -1.58,-0.74 -1.58,-1.72 0,-0.4 0.06,-0.92 0.15,-1.45l1.1 -5.74 -2.73 0 -1.11 5.91c-0.16,0.76 -0.23,1.37 -0.23,1.9 0,2.55 1.48,3.33 3.13,3.33 1.47,0 2.97,-0.8 4.08,-2.28l0.05 0 -0.27 2.01 2.41 0c0.14,-0.94 0.31,-2.03 0.56,-3.28l1.43 -7.59 -2.7 0zm3.41 10.25c0.65,0.49 1.95,0.87 3.33,0.89 2.75,0.02 4.87,-1.34 4.87,-3.75 0,-1.52 -1.23,-2.37 -2.48,-2.95 -1.05,-0.49 -1.56,-0.91 -1.56,-1.49 0,-0.72 0.69,-1.21 1.67,-1.21 1.03,0 1.83,0.31 2.28,0.54l0.71 -1.95c-0.51,-0.31 -1.54,-0.6 -2.77,-0.6 -2.67,0 -4.64,1.45 -4.64,3.6 0,1.33 1.03,2.25 2.41,2.9 1.18,0.56 1.54,0.98 1.54,1.61 0,0.71 -0.65,1.29 -1.76,1.29 -1.05,0 -2.28,-0.47 -2.9,-0.8l-0.7 1.92zm11.77 5.09l0.89 -4.74 0.05 0c0.42,0.27 1.25,0.54 2.43,0.54 3.89,0 6.74,-3.22 6.74,-7.12 0,-2.28 -1.29,-4.29 -3.84,-4.29 -1.51,0 -2.97,0.74 -3.99,2.1l-0.05 0 0.27 -1.9 -2.48 0c-0.13,1.14 -0.4,2.97 -0.62,4.24l-2.12 11.17 2.72 0zm1.7 -9.07c0.53,-2.83 2.12,-4.35 3.59,-4.35 1.43,0 1.97,1.23 1.97,2.25 0,2.73 -1.9,4.87 -3.91,4.87 -0.87,0 -1.56,-0.22 -2.01,-0.62l0.36 -2.15zm20.02 4.6c-0.04,-1.32 0.12,-3.39 0.45,-5.11l1.09 -5.52c-0.93,-0.26 -2.32,-0.51 -3.57,-0.51 -5.29,0 -8.17,3.66 -8.17,7.52 0,2.26 1.45,3.89 3.55,3.89 1.56,0 3.15,-0.76 4.26,-2.88l0.05 0c-0.11,0.98 -0.2,1.94 -0.2,2.61l2.54 0zm-2.03 -6.38c-0.53,3.01 -2.21,4.46 -3.53,4.46 -1.27,0 -1.78,-1 -1.78,-2.14 0,-2.64 2.1,-4.98 4.6,-4.98 0.56,0 0.96,0.07 1.23,0.13l-0.52 2.53zm13.13 3.88c-0.63,0.29 -1.47,0.6 -2.66,0.6 -1.56,0 -2.65,-0.91 -2.65,-2.63 0,-2.23 1.65,-4.44 4.37,-4.44 0.87,0 1.48,0.17 1.92,0.4l0.72 -2.08c-0.47,-0.2 -1.48,-0.49 -2.57,-0.49 -4.22,0 -7.3,3.04 -7.3,6.92 0,2.77 1.92,4.49 4.78,4.49 1.56,0 2.81,-0.36 3.55,-0.72l-0.16 -2.05z"></path> <path class="fil0" d="M43.77 22.83l-1.21 6.33 1.16 0 0.53 -2.8 2.95 0 -0.53 2.8 1.15 0 1.21 -6.33 -1.15 0 -0.5 2.53 -2.94 0 0.49 -2.53 -1.16 0zm7.61 6.44c1.63,0 2.85,-1.17 2.85,-2.79 0,-1.13 -0.81,-2.01 -2.11,-2.01 -1.64,0 -2.83,1.21 -2.83,2.81 0,1.2 0.87,1.99 2.08,1.99l0.01 0zm0.15 -0.88c-0.6,0 -1.04,-0.44 -1.04,-1.13 0,-0.86 0.54,-1.9 1.51,-1.9 0.77,0 1.03,0.65 1.03,1.16 0,0.94 -0.63,1.87 -1.49,1.87l-0.01 0zm3.09 0.5c0.27,0.21 0.82,0.37 1.4,0.38 1.17,0.01 2.06,-0.56 2.06,-1.58 0,-0.64 -0.52,-0.99 -1.04,-1.24 -0.45,-0.2 -0.67,-0.38 -0.67,-0.63 0,-0.3 0.3,-0.5 0.71,-0.5 0.44,0 0.78,0.13 0.97,0.22l0.3 -0.81c-0.22,-0.14 -0.65,-0.26 -1.17,-0.26 -1.14,0 -1.97,0.61 -1.97,1.51 0,0.57 0.44,0.95 1.02,1.22 0.5,0.24 0.65,0.42 0.65,0.68 0,0.3 -0.27,0.54 -0.74,0.54 -0.45,0 -0.97,-0.19 -1.23,-0.33l-0.29 0.8zm4.98 2.14l0.37 -1.99 0.02 0c0.18,0.12 0.53,0.23 1.03,0.23 1.65,0 2.86,-1.35 2.86,-3 0,-0.95 -0.55,-1.8 -1.63,-1.8 -0.64,0 -1.25,0.31 -1.69,0.89l-0.02 0 0.12 -0.8 -1.05 0c-0.06,0.48 -0.17,1.25 -0.27,1.78l-0.9 4.69 1.16 0zm0.72 -3.81c0.22,-1.19 0.89,-1.83 1.52,-1.83 0.6,0 0.83,0.52 0.83,0.95 0,1.15 -0.8,2.05 -1.66,2.05 -0.36,0 -0.66,-0.1 -0.85,-0.27l0.16 -0.9zm5.25 1.94l0.88 -4.57 -1.15 0 -0.87 4.57 1.14 0zm0.5 -5.25c0.4,0 0.71,-0.26 0.71,-0.67 0,-0.36 -0.27,-0.6 -0.62,-0.6 -0.36,0 -0.69,0.26 -0.69,0.67 0,0.36 0.26,0.6 0.59,0.6l0.01 0zm2.09 -0.2l-0.17 0.88 -0.64 0 -0.17 0.89 0.64 0 -0.38 1.92c-0.07,0.36 -0.1,0.62 -0.1,0.9 0,0.53 0.34,0.97 1.15,0.97 0.28,0 0.6,-0.04 0.75,-0.1l0.1 -0.91c-0.11,0.02 -0.25,0.03 -0.39,0.03 -0.33,0 -0.44,-0.18 -0.44,-0.42 0,-0.22 0.05,-0.49 0.09,-0.7l0.34 -1.69 1.08 0 0.18 -0.89 -1.08 0 0.21 -1.19 -1.17 0.31zm6.5 5.45c-0.02,-0.56 0.05,-1.43 0.19,-2.15l0.47 -2.32c-0.4,-0.11 -0.99,-0.22 -1.52,-0.22 -2.24,0 -3.46,1.54 -3.46,3.17 0,0.94 0.62,1.63 1.51,1.63 0.66,0 1.33,-0.32 1.8,-1.21l0.02 0c-0.05,0.41 -0.08,0.81 -0.08,1.1l1.07 0zm-0.86 -2.69c-0.22,1.27 -0.93,1.88 -1.49,1.88 -0.54,0 -0.76,-0.42 -0.76,-0.9 0,-1.11 0.89,-2.09 1.95,-2.09 0.24,0 0.41,0.02 0.52,0.05l-0.22 1.06zm3.17 2.69l1.29 -6.72 -1.15 0 -1.29 6.72 1.15 0zm7.13 -1.85l0.24 1.85 1.22 0 -1.03 -6.33 -1.47 0 -3.39 6.33 1.25 0 0.95 -1.85 2.23 0zm-1.85 -0.89l0.84 -1.61c0.19,-0.37 0.35,-0.75 0.52,-1.1l0.01 0c0.05,0.35 0.11,0.8 0.16,1.11l0.23 1.6 -1.76 0zm7.92 -1.83l-0.4 2.07c-0.2,1.03 -0.85,1.67 -1.41,1.67 -0.5,0 -0.67,-0.31 -0.67,-0.72 0,-0.17 0.03,-0.39 0.06,-0.61l0.47 -2.41 -1.16 0 -0.47 2.48c-0.06,0.32 -0.09,0.58 -0.09,0.8 0,1.07 0.62,1.4 1.32,1.4 0.62,0 1.26,-0.34 1.73,-0.96l0.02 0 -0.11 0.85 1.02 0c0.05,-0.4 0.13,-0.86 0.23,-1.38l0.61 -3.19 -1.15 0zm2.86 -0.88l-0.17 0.88 -0.64 0 -0.17 0.89 0.64 0 -0.38 1.92c-0.07,0.36 -0.1,0.62 -0.1,0.9 0,0.53 0.34,0.97 1.15,0.97 0.28,0 0.6,-0.04 0.75,-0.1l0.1 -0.91c-0.11,0.02 -0.25,0.03 -0.4,0.03 -0.32,0 -0.43,-0.18 -0.43,-0.42 0,-0.22 0.05,-0.49 0.09,-0.7l0.33 -1.69 1.09 0 0.18 -0.89 -1.09 0 0.22 -1.19 -1.17 0.31zm4.32 5.56c1.62,0 2.84,-1.17 2.84,-2.79 0,-1.13 -0.81,-2.01 -2.1,-2.01 -1.64,0 -2.83,1.21 -2.83,2.81 0,1.2 0.87,1.99 2.08,1.99l0.01 0zm0.15 -0.88c-0.6,0 -1.04,-0.44 -1.04,-1.13 0,-0.86 0.54,-1.9 1.5,-1.9 0.78,0 1.03,0.65 1.03,1.16 0,0.94 -0.62,1.87 -1.48,1.87l-0.01 0zm4.37 0.77l0.38 -2.07c0.17,-0.95 0.8,-1.7 1.38,-1.7 0.51,0 0.63,0.37 0.63,0.75 0,0.15 -0.03,0.31 -0.06,0.49l-0.47 2.53 1.1 0 0.39 -2.1c0.18,-0.99 0.79,-1.67 1.35,-1.67 0.47,0 0.65,0.3 0.65,0.75 0,0.17 -0.03,0.38 -0.06,0.54l-0.46 2.48 1.11 0 0.49 -2.64c0.04,-0.21 0.07,-0.55 0.07,-0.75 0,-0.9 -0.57,-1.3 -1.22,-1.3 -0.7,0.01 -1.32,0.33 -1.77,1 -0.03,-0.51 -0.38,-1 -1.19,-1 -0.64,0 -1.25,0.3 -1.71,0.94l-0.02 0 0.12 -0.82 -1.01 0c-0.04,0.39 -0.12,0.85 -0.21,1.38l-0.6 3.19 1.11 0zm11.63 0c-0.02,-0.56 0.05,-1.43 0.19,-2.15l0.46 -2.32c-0.39,-0.11 -0.98,-0.22 -1.51,-0.22 -2.24,0 -3.46,1.54 -3.46,3.17 0,0.94 0.62,1.63 1.51,1.63 0.66,0 1.33,-0.32 1.8,-1.21l0.02 0c-0.05,0.41 -0.08,0.81 -0.08,1.1l1.07 0zm-0.86 -2.69c-0.22,1.27 -0.93,1.88 -1.49,1.88 -0.54,0 -0.76,-0.42 -0.76,-0.9 0,-1.11 0.89,-2.09 1.95,-2.09 0.24,0 0.41,0.02 0.52,0.05l-0.22 1.06zm3.24 -2.76l-0.17 0.88 -0.64 0 -0.17 0.89 0.64 0 -0.37 1.92c-0.08,0.36 -0.11,0.62 -0.11,0.9 0,0.53 0.34,0.97 1.16,0.97 0.28,0 0.59,-0.04 0.74,-0.1l0.11 -0.91c-0.12,0.02 -0.26,0.03 -0.4,0.03 -0.32,0 -0.44,-0.18 -0.44,-0.42 0,-0.22 0.05,-0.49 0.1,-0.7l0.33 -1.69 1.09 0 0.18 -0.89 -1.09 0 0.22 -1.19 -1.18 0.31zm3.28 5.45l0.88 -4.57 -1.15 0 -0.87 4.57 1.14 0zm0.51 -5.25c0.39,0 0.7,-0.26 0.7,-0.67 0,-0.36 -0.27,-0.6 -0.62,-0.6 -0.36,0 -0.69,0.26 -0.69,0.67 0,0.36 0.27,0.6 0.6,0.6l0.01 0zm3.04 5.36c1.62,0 2.84,-1.17 2.84,-2.79 0,-1.13 -0.81,-2.01 -2.1,-2.01 -1.64,0 -2.83,1.21 -2.83,2.81 0,1.2 0.87,1.99 2.08,1.99l0.01 0zm0.15 -0.88c-0.6,0 -1.04,-0.44 -1.04,-1.13 0,-0.86 0.54,-1.9 1.5,-1.9 0.78,0 1.03,0.65 1.03,1.16 0,0.94 -0.62,1.87 -1.48,1.87l-0.01 0zm4.4 0.77l0.37 -2c0.22,-1.13 0.93,-1.77 1.48,-1.77 0.5,0 0.65,0.31 0.65,0.74 0,0.18 -0.03,0.39 -0.06,0.55l-0.46 2.48 1.14 0 0.51 -2.6c0.03,-0.21 0.07,-0.55 0.07,-0.74 0,-0.97 -0.61,-1.35 -1.28,-1.35 -0.69,0 -1.35,0.33 -1.79,0.99l-0.02 0 0.11 -0.87 -1.03 0c-0.05,0.39 -0.12,0.85 -0.23,1.38l-0.61 3.19 1.15 0z"></path> <polygon class="fil1" points="42.46,32.92 72,32.92 72,34.24 42.46,34.24 "></polygon> <polygon class="fil2" points="101.55,34.24 72,34.24 72,32.92 101.55,32.92 "></polygon> <polygon class="fil3" points="101.55,32.92 131.09,32.92 131.09,34.24 101.55,34.24 "></polygon> <path class="fil4 str0" d="M3.14 0.04l30.93 0c1.7,0 3.1,1.39 3.1,3.1l0 29.15c0,1.71 -1.4,3.1 -3.1,3.1l-30.93 0c-1.71,0 -3.1,-1.39 -3.1,-3.1l0 -29.15c0,-1.71 1.39,-3.1 3.1,-3.1z"></path> <path class="fil5" d="M35.67 22.37l0 9.65c0,1.04 -0.85,1.9 -1.9,1.9l-30.33 0c-1.05,0 -1.9,-0.86 -1.9,-1.9l0 -9.65 34.13 0z"></path> <path class="fil6" d="M3.44 1.51l30.33 0c1.05,0 1.9,0.86 1.9,1.9l0 17.53 -34.13 0 0 -17.53c0,-1.04 0.85,-1.9 1.9,-1.9z"></path> <polygon class="fil7" points="31.76,10.49 31.76,9.12 18.02,6.84 4.27,9.13 4.27,10.49 "></polygon> </g> </g> </svg> 