<?xml version="1.0" encoding="utf-8"?>
<!-- Generator: Adobe Illustrator 21.0.2, SVG Export Plug-In . SVG Version: 6.00 Build 0)  -->
<svg version="1.1" id="TENTE-Logo_RGB" xmlns="http://www.w3.org/2000/svg" xmlns:xlink="http://www.w3.org/1999/xlink" x="0px"
	 y="0px" viewBox="0 0 578.3 161.6" style="enable-background:new 0 0 578.3 161.6;" xml:space="preserve">
<style type="text/css">
	.st0{fill:#193C69;}
</style>
<path class="st0" d="M574.2,20.7c0,0-0.1-2.3-1.6-3.7c-1.4-1.4-3.7-1.8-3.7-1.8C477.2,5.2,384,0,289.7,0c0,0-0.9,0-1.1,0v0
	C194.2,0,101.1,5.2,9.4,15.2c0,0-2.4,0.4-3.7,1.8c-1.4,1.5-1.6,3.7-1.6,3.7C1.4,40.9,0,61.4,0,82.3c0,19.8,1.3,39.3,3.7,58.5
	c0,0,0.2,2.3,1.6,3.7c1.4,1.4,3.7,1.8,3.7,1.8c91.8,10,185.1,15.2,279.6,15.3h1.1c94.5,0,187.8-5.2,279.6-15.3c0,0,2.4-0.4,3.7-1.8
	c1.4-1.5,1.6-3.7,1.6-3.7c2.4-19.2,3.7-38.7,3.7-58.5C578.3,61.4,576.9,40.9,574.2,20.7z M140.4,49.9c-0.2,1.3-0.4,2.3-0.8,3
	c-0.3,0.8-0.8,1.3-1.3,1.7c-0.5,0.4-1.1,0.6-1.7,0.6l-30,0l0,74.2c0,0.6-0.2,1.1-0.6,1.5c-0.4,0.5-1.1,0.8-2,1.1
	c-0.9,0.3-2.2,0.5-3.8,0.7c-1.6,0.2-3.6,0.3-6,0.3c-2.4,0-4.4-0.1-6-0.3c-1.6-0.2-2.9-0.4-3.8-0.7c-0.9-0.3-1.6-0.7-2-1.1
	c-0.4-0.5-0.6-1-0.6-1.5l0-74.2l-30.3,0c-0.7,0-1.3-0.2-1.7-0.6c-0.5-0.4-0.9-0.9-1.2-1.7c-0.3-0.8-0.6-1.8-0.8-3
	c-0.2-1.3-0.3-2.8-0.3-4.6c0-1.8,0.1-3.4,0.3-4.7c0.2-1.3,0.4-2.3,0.8-3.1c0.3-0.8,0.7-1.3,1.2-1.7c0.5-0.3,1.1-0.5,1.7-0.5l85.1,0
	c0.6,0,1.2,0.2,1.7,0.5c0.5,0.3,0.9,0.9,1.3,1.7c0.3,0.8,0.6,1.8,0.8,3.1c0.2,1.3,0.3,2.9,0.3,4.7C140.7,47.2,140.6,48.7,140.4,49.9
	z M225.3,127.3c-0.2,1.2-0.4,2.2-0.8,2.9c-0.3,0.7-0.8,1.3-1.3,1.6c-0.5,0.3-1.1,0.5-1.7,0.5l-60.3,0c-2.2,0-4.1-0.6-5.7-1.8
	c-1.5-1.2-2.3-3.2-2.3-5.9l0-81.6c0-2.7,0.8-4.7,2.3-5.9c1.5-1.2,3.4-1.8,5.7-1.8l59.9,0c0.6,0,1.2,0.2,1.6,0.5
	c0.5,0.3,0.9,0.8,1.2,1.6c0.3,0.8,0.6,1.8,0.8,3c0.2,1.2,0.3,2.7,0.3,4.6c0,1.7-0.1,3.2-0.3,4.4c-0.2,1.2-0.4,2.2-0.8,2.9
	c-0.3,0.7-0.7,1.3-1.2,1.6c-0.5,0.3-1,0.5-1.6,0.5l-45.1,0l0,18.2l37.9,0c0.6,0,1.2,0.2,1.7,0.5c0.5,0.3,0.9,0.9,1.3,1.6
	c0.3,0.7,0.6,1.7,0.8,2.9c0.2,1.2,0.3,2.7,0.3,4.4c0,1.8-0.1,3.3-0.3,4.4c-0.2,1.2-0.4,2.1-0.8,2.8c-0.3,0.7-0.8,1.2-1.3,1.5
	c-0.5,0.3-1.1,0.5-1.7,0.5l-37.9,0l0,22.2l45.6,0c0.6,0,1.2,0.2,1.7,0.5c0.5,0.3,0.9,0.9,1.3,1.6c0.3,0.7,0.6,1.7,0.8,2.9
	c0.2,1.2,0.3,2.7,0.3,4.5C225.6,124.6,225.5,126.1,225.3,127.3z M334.5,127.9c-0.5,1-1.2,1.9-2,2.5c-0.8,0.7-1.8,1.2-3,1.5
	c-1.2,0.3-2.3,0.5-3.5,0.5l-10.5,0c-2.2,0-4.1-0.2-5.7-0.6c-1.6-0.4-3.1-1.1-4.4-2.2c-1.3-1-2.6-2.5-3.9-4.2
	c-1.3-1.8-2.7-4.1-4.2-6.9l-22.7-38.2c-1.8-3.1-3.5-6.4-5.4-9.9c-1.8-3.5-3.4-7-4.9-10.3H264c0.2,4.1,0.4,8.2,0.6,12.2
	c0.1,4.1,0.2,8.2,0.2,12.5l0,44.6c0,0.6-0.2,1.1-0.5,1.5c-0.3,0.5-0.9,0.8-1.8,1.1c-0.8,0.3-2,0.6-3.4,0.7c-1.4,0.2-3.3,0.3-5.5,0.3
	c-2.2,0-4-0.1-5.5-0.3c-1.4-0.2-2.6-0.4-3.4-0.7c-0.8-0.3-1.4-0.7-1.7-1.1c-0.3-0.5-0.5-1-0.5-1.5l0-85.9c0-2.7,0.9-4.7,2.6-6
	c1.7-1.3,3.8-2,6.3-2l13.3,0c2.4,0,4.4,0.2,6,0.6c1.6,0.4,3.1,1,4.4,1.8c1.3,0.8,2.5,2,3.6,3.5c1.1,1.5,2.3,3.4,3.5,5.6l20.7,35.2
	l3.4,6c1.3,2.4,2.5,4.7,3.7,6.9c1.2,2.3,2.3,4.5,3.5,6.8h0.1c-0.2-4-0.3-8.1-0.4-12.4c-0.1-3.9-0.1-7.7-0.1-11.3h0v-1l0-8.2l0-30.6
	c0-0.6,0.2-1.1,0.6-1.5c0.4-0.5,1-0.9,1.9-1.2c0.9-0.3,2-0.6,3.5-0.7c1.4-0.1,3.3-0.2,5.5-0.2c2.1,0,3.9,0.1,5.4,0.2
	c1.4,0.1,2.6,0.4,3.3,0.7c0.8,0.3,1.3,0.7,1.6,1.2c0.3,0.5,0.5,1,0.5,1.5l0,30.6l0,12.8l0,42.7C335.3,125.7,335,126.8,334.5,127.9z
	 M404.9,131c-0.4,0.5-1.1,0.8-2,1.1c-0.9,0.3-2.2,0.5-3.8,0.7c-1.6,0.2-3.6,0.3-6,0.3c-2.4,0-4.4-0.1-6-0.3
	c-1.6-0.2-2.9-0.4-3.8-0.7c-0.9-0.3-1.6-0.7-2-1.1c-0.4-0.5-0.6-1-0.6-1.5l0-56.7c0-0.6,0.2-1.1,0.6-1.5c0.4-0.5,1.1-0.8,2-1.1
	c0.9-0.3,2.2-0.5,3.8-0.7c1.6-0.2,3.6-0.3,6-0.3c2.4,0,4.4,0.1,6,0.3c1.6,0.2,2.9,0.4,3.8,0.7c0.9,0.3,1.6,0.7,2,1.1
	c0.4,0.5,0.6,1,0.6,1.5l0,56.7C405.5,130,405.3,130.5,404.9,131z M439.2,49.9c-0.2,1.3-0.4,2.3-0.8,3c-0.3,0.8-0.8,1.3-1.3,1.7
	c-0.5,0.4-1.1,0.6-1.7,0.6l-85.1,0c-0.7,0-1.3-0.2-1.7-0.6c-0.5-0.4-0.9-0.9-1.2-1.7c-0.3-0.8-0.6-1.8-0.8-3
	c-0.2-1.3-0.3-2.8-0.3-4.6c0-1.8,0.1-3.4,0.3-4.7c0.2-1.3,0.4-2.3,0.8-3.1c0.3-0.8,0.7-1.3,1.2-1.7c0.5-0.3,1.1-0.5,1.7-0.5l85.1,0
	c0.6,0,1.2,0.2,1.7,0.5c0.5,0.3,0.9,0.9,1.3,1.7c0.3,0.8,0.6,1.8,0.8,3.1c0.2,1.3,0.3,2.9,0.3,4.7C439.5,47.2,439.4,48.7,439.2,49.9
	z M523.2,127.3c-0.2,1.2-0.4,2.2-0.8,2.9c-0.3,0.7-0.8,1.3-1.3,1.6c-0.5,0.3-1.1,0.5-1.7,0.5l-60.3,0c-2.2,0-4.1-0.6-5.7-1.8
	c-1.5-1.2-2.3-3.2-2.3-5.9l0-81.6c0-2.7,0.8-4.7,2.3-5.9c1.5-1.2,3.4-1.8,5.7-1.8l59.9,0c0.6,0,1.2,0.2,1.6,0.5
	c0.5,0.3,0.9,0.8,1.2,1.6c0.3,0.8,0.6,1.8,0.8,3c0.2,1.2,0.3,2.7,0.3,4.6c0,1.7-0.1,3.2-0.3,4.4c-0.2,1.2-0.4,2.2-0.8,2.9
	c-0.3,0.7-0.7,1.3-1.2,1.6c-0.5,0.3-1,0.5-1.6,0.5l-45.1,0l0,18.2l37.9,0c0.6,0,1.2,0.2,1.7,0.5c0.5,0.3,0.9,0.9,1.3,1.6
	c0.3,0.7,0.6,1.7,0.8,2.9c0.2,1.2,0.3,2.7,0.3,4.4c0,1.8-0.1,3.3-0.3,4.4c-0.2,1.2-0.4,2.1-0.8,2.8c-0.3,0.7-0.8,1.2-1.3,1.5
	c-0.5,0.3-1.1,0.5-1.7,0.5l-37.9,0l0,22.2l45.6,0c0.6,0,1.2,0.2,1.7,0.5c0.5,0.3,0.9,0.9,1.3,1.6c0.3,0.7,0.6,1.7,0.8,2.9
	c0.2,1.2,0.3,2.7,0.3,4.5C523.4,124.6,523.3,126.1,523.2,127.3z"/>
</svg>
